<svg width="66" height="65" viewBox="0 0 66 65" fill="none" xmlns="http://www.w3.org/2000/svg">
<path d="M13.0375 8.52258C13.5529 2.10403 20.4456 -1.71251 26.1592 1.25707L34.1291 5.39937C36.0484 6.39691 38.2628 6.66984 40.3669 6.16821L49.1041 4.08517C55.3678 2.59185 61.1275 7.96785 60.0688 14.3194L58.5921 23.1794C58.2365 25.313 58.6612 27.5033 59.7885 29.3494L64.4695 37.0153C67.8253 42.511 64.4923 49.65 58.1245 50.606L49.2418 51.9394C47.1028 52.2605 45.1509 53.3413 43.7435 54.9838L37.8993 61.8047C33.7096 66.6945 25.89 65.7307 23.0131 59.9699L19 51.9341C18.0336 49.9989 16.4026 48.4765 14.4055 47.6456L6.11254 44.1952C0.167382 41.7216 -1.33239 33.9869 3.25745 29.4706L9.65986 23.1707C11.2017 21.6536 12.1455 19.632 12.3186 17.4759L13.0375 8.52258Z" fill="#F8F4F1"/>
</svg>
